<?xml version="1.0" encoding="UTF-8"?>
<svg width="797px" height="141px" viewBox="0 0 797 141" version="1.1" xmlns="http://www.w3.org/2000/svg" xmlns:xlink="http://www.w3.org/1999/xlink">
    <title>Group</title>
    <g id="Page-1" stroke="none" stroke-width="1" fill="none" fill-rule="evenodd">
        <g id="Group" transform="translate(-56.461137, -14.085560)" fill-rule="nonzero">
            <g id="bg-lavender" transform="translate(445.694142, 219.849403) rotate(8.000000) translate(-445.694142, -219.849403) translate(18.381210, 57.894330)" fill="#C7A2CC">
                <path d="M822.52873,14.7873174 C818.146935,14.6976685 813.359063,14.6528441 808.165115,14.6528441 C797.531559,14.6528441 787.003285,14.8525373 776.369728,14.9523839 C772.053136,14.9523839 767.631261,15.1520771 763.314669,15.1520771 C753.418091,15.0522305 743.521514,14.8525373 733.519654,14.8525373 C723.307228,14.9523839 713.200085,15.3517703 702.98766,15.4516169 C699.302764,15.4516169 695.617868,15.1520771 691.932972,14.9523839 C692.038255,15.3517703 542.747332,15.8510033 543.168463,15.6513101 C544.221291,15.3517703 522.149453,16.8494694 515.411358,15.9508499 C508.673263,15.0522305 499.791975,15.2519237 493.05388,15.6513101 C489.053136,15.8510033 485.052392,16.2503898 480.946365,16.450083 C479.051276,16.5499296 477.156186,16.0506966 475.155814,15.9508499 C462.521886,15.5514635 449.887957,16.5499296 437.359311,17.448549 C432.516306,17.7480888 427.6733,18.0476286 422.725011,18.2473218 C414.723523,18.6467082 406.827317,18.9462481 398.825829,19.3456345 C394.719803,18.3471684 390.824341,19.9447141 386.92888,20.4439471 C383.770398,20.8433335 380.506633,21.1428733 377.558716,21.9416462 C371.241752,23.738885 364.714222,22.8402656 358.291975,23.1398054 C351.343314,23.4393452 344.289371,23.4393452 337.34071,23.6390384 C327.865264,23.8387316 318.389817,24.1382714 308.914371,24.4378112 C304.597779,24.5376578 300.175904,24.8371977 295.859311,25.0368909 C288.700085,25.3364307 281.646142,25.6359705 274.486916,25.9355103 C271.749564,26.0353569 269.012213,26.5345899 266.274862,26.7342831 C262.800532,26.9339763 259.220919,27.1336695 255.746588,27.2335161 C251.851127,27.4332093 247.850383,27.5330559 243.954922,27.8325958 C231.320993,28.7312152 218.792347,28.8310618 206.158419,28.9309084 C202.473523,28.9309084 198.788627,28.8310618 195.103731,28.7312152 C190.787139,28.531522 186.470547,28.1321356 182.048672,27.9324424 C179.837734,27.8325958 177.626797,27.7327491 175.521142,27.9324424 C167.519654,28.3318288 159.518166,28.8310618 151.62196,29.2304482 C149.411023,29.3302948 147.094803,29.4301414 144.883865,29.6298346 C137.829922,30.1290676 130.881261,30.7281472 123.827317,31.0276871 C113.299044,31.5269201 102.876053,32.4255395 92.3477787,32.0261531 C87.0836418,31.8264599 81.9247877,32.1259997 76.6606508,32.0261531 C67.2904871,31.8264599 58.0256061,31.4270735 48.6554424,31.1275337 C46.8656359,31.0276871 45.0758293,31.1275337 43.3913055,31.1275337 C36.0215139,30.9278405 28.6517222,30.7281472 21.1766478,30.6283006 C15.3860972,30.528454 10.6739916,30.7770029 4.88344102,30.7770029 L53.9868823,309.257302 C55.5661234,309.655843 846.868913,168.34965 849.711547,168.948729 C850.343243,169.081858 841.282304,117.694721 822.52873,14.7873174 Z" id="Path" transform="translate(427.312932, 161.955073) rotate(2.000000) translate(-427.312932, -161.955073) "></path>
            </g>
            <path d="M854.86051,385.653625 C852.600029,384.991854 850.569788,384.460968 848.769788,384.060968 C844.969788,383.160968 841.169788,382.260968 837.369788,381.260968 C834.569788,380.560968 831.869788,379.760968 829.069788,379.060968 C826.469788,378.460968 823.769788,377.960968 821.169788,377.460968 C818.469788,376.860968 815.769788,376.360968 813.069788,375.660968 C808.869788,374.660968 804.569788,374.360968 800.469788,372.760968 C800.069788,372.660968 799.669788,372.460968 799.269788,372.560968 C797.469788,373.060968 796.369788,372.460968 796.269788,370.260968 C793.969788,371.860968 791.769788,371.060968 789.669788,370.560968 C786.069788,369.760968 782.369788,368.960968 778.769788,368.160968 C775.269788,367.460968 771.769788,366.760968 768.269788,365.960968 C764.269788,365.060968 760.269788,363.960968 756.169788,363.060968 C754.669788,362.660968 753.069788,362.460968 751.469788,362.060968 C748.269788,361.260968 745.069788,360.360968 741.769788,359.460968 C738.569788,358.660968 735.369788,357.960968 732.369788,356.960968 C726.269788,354.960968 720.269788,352.660968 714.169788,350.560968 C707.069788,348.060968 699.869788,346.160968 692.469788,344.760968 C687.169788,343.760968 681.769788,342.660968 676.469788,341.660968 C674.669788,341.360968 672.869788,341.060968 671.069788,340.660968 C667.169788,339.860968 663.269788,338.960968 659.369788,338.260968 C652.169788,336.760968 644.969788,335.360968 637.769788,333.960968 C630.469788,332.560968 623.269788,331.060968 615.969788,329.760968 C611.869788,328.960968 607.769788,328.460968 603.669788,327.760968 C600.969788,327.260968 598.369788,326.560968 595.769788,326.060968 C590.169788,324.960968 584.669788,324.060968 579.069788,322.860968 C573.769788,321.760968 568.469788,320.460968 563.269788,319.260968 C558.769788,318.160968 554.269788,317.160968 549.769788,316.060968 C543.669788,314.560968 537.569788,312.960968 531.469788,311.360968 C527.269788,310.260968 522.969788,309.160968 518.769788,308.060968 C512.969788,306.560968 507.169788,305.060968 501.369788,303.660968 C495.369788,302.260968 489.269788,300.960968 483.169788,299.660968 C477.969788,298.560968 472.769788,297.360968 467.469788,296.360968 C462.369788,295.360968 457.269788,294.660968 452.169788,293.860968 C450.169788,293.560968 448.069788,293.360968 445.969788,293.060968 C441.369788,292.460968 436.769788,291.660968 432.169788,291.260968 C422.469788,290.260968 412.769788,289.260968 403.069788,288.360968 C400.869788,288.160968 398.569788,288.060968 396.369788,287.760968 C387.769788,286.660968 379.069788,285.560968 370.469788,284.260968 C366.769788,283.760968 363.169788,282.860968 359.469788,282.160968 C358.969788,282.060968 358.369788,282.060968 357.769788,282.060968 C356.869788,282.060968 355.969788,282.060968 355.169788,281.960968 C353.269788,281.560968 351.469788,281.060968 349.569788,280.660968 C342.869788,279.360968 336.069788,278.160968 329.369788,276.860968 C324.169788,275.860968 318.869788,274.860968 313.669788,273.760968 C306.669788,272.260968 299.669788,270.760968 292.569788,269.260968 C284.269788,267.560968 275.969788,265.860968 267.769788,264.260968 C262.869788,263.260968 257.969788,262.360968 252.969788,261.360968 C246.969788,260.160968 240.869788,258.960968 234.869788,257.860968 C229.969788,256.860968 224.969788,255.960968 220.069788,255.060968 C215.569788,254.160968 211.169788,253.260968 206.669788,252.360968 C202.769788,251.560968 198.869788,250.860968 194.969788,249.860968 C189.069788,248.460968 183.269788,246.860968 177.369788,245.360968 C171.869788,243.960968 166.469788,242.460968 160.969788,240.960968 C156.469788,239.760968 151.969788,238.360968 147.369788,237.160968 C142.469788,235.860968 137.469788,234.560968 132.569788,233.460968 C127.569788,232.260968 122.469788,231.160968 117.369788,230.060968 C111.569788,228.760968 105.669788,227.560968 99.7697881,226.260968 C93.5697881,224.860968 87.2697881,223.460968 81.0697881,222.160968 C78.2697881,221.560968 73.1565578,220.498363 65.730097,218.973153 L57.4393715,254.853346 L846.566005,421.581075 L854.86051,385.653625 Z" id="Path" fill="#FDD405" transform="translate(456.149941, 320.277114) scale(-1, 1) rotate(-192.000000) translate(-456.149941, -320.277114) "></path>
        </g>
    </g>
</svg>