<?xml version="1.0" encoding="UTF-8"?>
<svg width="808px" height="245px" viewBox="0 0 808 245" version="1.1" xmlns="http://www.w3.org/2000/svg" xmlns:xlink="http://www.w3.org/1999/xlink">
    <title>Path</title>
    <g id="Page-1" stroke="none" stroke-width="1" fill="none" fill-rule="evenodd">
        <path d="M806.9,209.7 C806.9,162 806.9,114.4 806.9,66.7 C806.9,44.7 806.9,22.7 806.9,0.7 C800.4,0.7 793.8,0.7 787.3,0.6 C779.9,0.5 772.4,0.1 765,0.1 C754.9,0.1 744.9,0.3 734.8,0.4 C730.7,0.4 726.5,0.6 722.4,0.6 C713,0.5 703.6,0.3 694.1,0.3 C684.4,0.4 674.8,0.8 665.1,0.9 C661.6,0.9 658.1,0.6 654.6,0.4 C654.7,0.8 512.9,1.3 513.3,1.1 C514.3,0.8 481.4,2.8 481.9,2.7 C482.9,2.3 483.8,1.8 484.8,1.4 C478.4,0.5 472.1,0.7 465.7,1.1 C461.9,1.3 458.1,1.7 454.2,1.9 C452.4,2 450.6,1.5 448.7,1.4 C436.7,1 424.7,2 412.8,2.9 C408.2,3.2 403.6,3.5 398.9,3.7 C391.3,4.1 383.8,4.4 376.2,4.8 C372.3,3.8 368.6,5.4 364.9,5.9 C361.9,6.3 358.8,6.6 356,7.4 C350,9.2 343.8,8.3 337.7,8.6 C331.1,8.9 324.4,8.9 317.8,9.1 C308.8,9.3 299.8,9.6 290.8,9.9 C286.7,10 282.5,10.3 278.4,10.5 C271.6,10.8 264.9,11.1 258.1,11.4 C255.5,11.5 252.9,12 250.3,12.2 C247,12.4 243.6,12.6 240.3,12.7 C236.6,12.9 232.8,13 229.1,13.3 C217.1,14.2 205.2,14.3 193.2,14.4 C189.7,14.4 186.2,14.3 182.7,14.2 C178.6,14 174.5,13.6 170.3,13.4 C168.2,13.3 166.1,13.2 164.1,13.4 C156.5,13.8 148.9,14.3 141.4,14.7 C139.3,14.8 137.1,14.9 135,15.1 C128.3,15.6 121.7,16.2 115,16.5 C105,17 95.1,17.9 85.1,17.5 C80.1,17.3 75.2,17.6 70.2,17.5 C61.3,17.3 52.5,16.9 43.6,16.6 C41.9,16.5 40.2,16.6 38.6,16.6 C31.6,16.4 24.6,16.2 17.5,16.1 C12,16 6.4,16.1 0.9,16.1 L0.9,244.410177 C2.4,244.810177 801.8,243.2 804.5,243.8 C805.4,244 806.4,244.1 807.3,244.2 C806.9,232.5 806.9,221.1 806.9,209.7 Z" id="Path" fill="#E3692E" fill-rule="nonzero" transform="translate(404.100000, 122.287432) scale(-1, 1) translate(-404.100000, -122.287432) "></path>
    </g>
</svg>