<?xml version="1.0" encoding="UTF-8"?>
<svg width="2345px" height="1448px" viewBox="0 0 2345 1448" version="1.1" xmlns="http://www.w3.org/2000/svg" xmlns:xlink="http://www.w3.org/1999/xlink">
    <title>footer_newdark</title>
    <g id="Page-1" stroke="none" stroke-width="1" fill="none" fill-rule="evenodd">
        <g id="footer_newdark" transform="translate(0.990000, 0.350000)" fill="#253368" fill-rule="nonzero">
            <g id="b">
                <path d="M2343.6,709.4 C2340.98,709.11 2338.08,1445.82 2335.46,1445.24 C2327.61,1443.5 4.36,1448.18 0,1447.01 L0,47.65 C15.98,47.65 32.26,46.2 48.24,46.49 C68.87,46.78 89.22,47.36 109.56,47.94 C114.21,47.94 119.15,47.65 124.09,47.94 C149.96,48.81 175.53,49.97 201.4,50.56 C215.93,50.85 230.17,49.98 244.7,50.56 C273.76,51.72 302.53,49.11 331.6,47.65 C351.07,46.78 370.25,45.03 389.72,43.58 C395.82,43 402.22,42.71 408.32,42.42 C430.12,41.26 452.2,39.8 474.29,38.64 C480.1,38.06 486.21,38.35 492.31,38.64 C504.52,39.22 516.43,40.38 528.35,40.96 C538.52,41.25 548.69,41.54 558.87,41.54 C593.74,41.25 628.33,40.96 663.2,38.34 C673.95,37.47 685,37.18 695.75,36.6 C705.34,36.31 715.22,35.73 724.81,35.15 C732.37,34.57 739.92,33.12 747.48,32.83 C767.24,31.96 786.71,31.09 806.48,30.21 C818.4,29.63 830.6,28.76 842.52,28.47 C868.68,27.6 894.83,26.73 920.99,26.15 C940.17,25.57 959.64,25.57 978.82,24.7 C996.55,23.83 1014.57,26.44 1032,21.21 C1040.14,18.89 1049.15,18.01 1057.87,16.85 C1068.62,15.4 1079.38,10.75 1090.71,13.65 C1112.8,12.49 1134.59,11.62 1156.68,10.45 C1170.34,9.87 1183.71,9 1197.08,8.13 C1231.66,5.51 1266.54,2.61 1301.41,3.77 C1306.93,4.06 1312.16,5.51 1317.39,5.22 C1328.72,4.64 1339.77,3.48 1350.81,2.9 C1369.41,1.74 1393.93,1.16 1412.53,3.77 C1431.13,6.39 1492.06,2.03 1489.15,2.9 C1487.99,3.48 1900.09,2.03 1899.8,0.87 C1909.97,1.45 1920.14,2.32 1930.32,2.32 C1958.51,2.03 1986.41,0.87 2014.6,0.58 C2042.21,0.58 2069.53,1.16 2096.85,1.45 C2108.77,1.45 2120.97,0.87 2132.89,0.87 C2162.24,0.58 2191.31,-5.68434188e-14 2220.66,-5.68434188e-14 C2242.17,-5.68434188e-14 2263.96,1.16 2285.47,1.45 C2304.36,1.74 2324.7,1.74 2343.6,1.74 C2343.6,65.68 2342.43,675.41 2343.6,709.41 L2343.6,709.4 Z" id="c"></path>
            </g>
        </g>
    </g>
</svg>