<svg width="24" height="6" viewBox="0 0 24 6" fill="none" xmlns="http://www.w3.org/2000/svg">
<path d="M23.1 1.39999C23.1 1.29999 23.1 1.3 23.1 1.2C22.7 1.2 22.4 1.2 22 1.2C22 1.2 21.9 1.19999 21.9 1.09999H21.8C21.7 1.09999 21.6 1.1 21.5 1.2C21.4 1.2 21.4 1.19999 21.4 1.09999C21.3 1.09999 21.2 1.09999 21.1 1.09999H21C20.7 1.09999 20.5 1.09999 20.2 1.09999C20.1 1.09999 20 1.19999 19.9 1.09999C19.7 1.09999 19.5 1.09999 19.3 1.09999C19.2 1.09999 19.1 1.09999 19 1.09999C18.5 1.09999 18 1.09999 17.5 1.09999C17.4 1.09999 17.3 1.09999 17.1 0.999994C16.8 0.999994 16.5 0.999994 16.2 0.999994C16.1 0.999994 16 0.999994 16 0.999994C15.9 0.999994 15.8 0.999994 15.7 0.999994C15.7 0.999994 15.7 0.999994 15.6 0.999994C15.4 0.999994 15.1 0.999994 14.9 0.999994C14.8 0.999994 14.6 0.999994 14.5 0.999994C14.3 0.999994 14 0.999994 13.8 0.999994C13.6 0.999994 13.5 0.999994 13.3 0.999994C13.2 0.999994 13.2 0.999994 13.1 0.999994C13 0.999994 12.9 0.999994 12.7 0.999994C12.7 0.999994 12.7 0.999994 12.6 0.999994C12.2 0.999994 11.9 0.999994 11.5 0.999994C11.4 0.999994 11.4 1.09999 11.3 0.999994C11 0.999994 10.7 0.999994 10.4 0.999994C10.2 1.09999 10 1.09999 9.7 0.999994C9.3 0.999994 8.9 0.999994 8.5 0.999994C8.5 0.999994 8.5 0.999994 8.4 0.999994C8 0.999994 7.6 0.999994 7.2 0.999994C7.2 0.999994 7.1 0.999994 7.1 0.899994H7C6.8 0.999994 6.7 0.999994 6.5 0.899994C6 0.899994 5.5 0.899994 5 0.899994C4.9 0.999994 4.8 0.999994 4.6 0.899994C4.4 0.899994 4.3 0.899994 4.1 0.899994C3.7 0.899994 3.4 0.899994 3 0.899994C2.7 0.899994 2.4 0.899994 2 0.899994H1.9C1.5 0.899994 1.1 0.899994 0.699997 0.999994V5.4C1.1 5.4 1.4 5.49999 1.8 5.49999C2.4 5.59999 3.1 5.59999 3.7 5.59999C4 5.59999 4.3 5.59999 4.6 5.59999C5.6 5.59999 6.7 5.59999 7.7 5.59999C8.9 5.59999 10 5.59999 11.2 5.59999C11.7 5.59999 12.2 5.59999 12.6 5.59999C13.1 5.59999 13.6 5.59999 14 5.49999C14.8 5.49999 15.6 5.4 16.4 5.4C16.9 5.4 17.4 5.39999 17.9 5.29999C18.7 5.29999 19.5 5.2 20.2 5.2C20.9 5.2 21.7 5.09999 22.4 5.09999C22.5 5.09999 22.6 5.09999 22.8 5.09999C22.8 4.99999 22.8 5 22.8 4.9C23.1 3.9 23.1 2.59999 23.1 1.39999Z" fill="#FFF"/>
</svg>
