<?xml version="1.0" encoding="UTF-8"?>
<svg width="230px" height="93px" viewBox="0 0 230 93" version="1.1" xmlns="http://www.w3.org/2000/svg" xmlns:xlink="http://www.w3.org/1999/xlink">
    <title>Group</title>
    <g id="Page-1" stroke="none" stroke-width="1" fill="none" fill-rule="evenodd">
        <g id="RGB_Horizon-2023-Logo-+-Dates-White" transform="translate(-36.000000, -35.000000)">
            <g id="Group" transform="translate(36.172000, 35.828951)">
                <polyline id="Fill-1" fill="#FFFFFE" points="22.262 0.277049398 22.262 16.0120494 4.019 16.0120494 4.019 0.277049398 0.126 0.277049398 0.126 35.8020494 4.019 35.8020494 4.019 19.9590494 22.262 19.9590494 22.262 35.8020494 26.155 35.8020494 26.155 0.277049398 22.262 0.277049398"></polyline>
                <path d="M77.253,19.9590494 L82.796,19.9590494 L92.671,35.8010494 L97.207,35.8010494 L87.203,19.7950494 L88.785,19.3520494 C92.187,18.4030494 96.243,16.0280494 96.243,10.1180494 C96.243,0.390049398 85.242,0.277049398 84.773,0.277049398 L73.36,0.277049398 L73.36,5.0420494 L80.388,16.1200494 L73.36,16.1200494 L73.36,35.8010494 L77.253,35.8010494 L77.253,19.9590494 Z M77.456,4.1710494 L84.773,4.1710494 C87.393,4.1710494 92.348,5.4150494 92.348,10.1180494 C92.348,13.4360494 89.866,15.6580494 85.706,16.0600494 L84.951,16.1340494 L77.456,4.1710494 L77.456,4.1710494 Z" id="Fill-2" fill="#FFFFFE"></path>
                <polygon id="Fill-3" fill="#FFFFFE" points="108.024 35.8000494 111.917 35.8000494 111.917 0.275049398 108.024 0.275049398"></polygon>
                <polyline id="Fill-4" fill="#FFFFFE" points="123.367 0.125049398 123.367 4.0230494 143.842 4.0230494 124.338 35.6960494 151.712 35.6960494 151.712 31.7970494 131.295 31.7970494 150.744 0.125049398 123.367 0.125049398"></polyline>
                <polyline id="Fill-5" fill="#FFFFFE" points="225.364 0.277049398 225.364 29.9600494 204.562 0.277049398 200.026 0.277049398 200.026 35.8020494 203.918 35.8020494 203.918 6.1090494 224.666 35.8020494 229.201 35.8020494 229.201 0.277049398 225.364 0.277049398"></polyline>
                <polyline id="Fill-6" fill="#FFFFFE" points="22.262 0.277049398 22.262 16.0120494 4.019 16.0120494 4.019 0.277049398 0.126 0.277049398 0.126 35.8020494 4.019 35.8020494 4.019 19.9590494 22.262 19.9590494 22.262 35.8020494 26.155 35.8020494 26.155 0.277049398 22.262 0.277049398"></polyline>
                <polygon id="Fill-7" fill="#FFFFFE" points="108.024 35.8000494 111.917 35.8000494 111.917 0.275049398 108.024 0.275049398"></polygon>
                <polyline id="Fill-8" fill="#FFFFFE" points="123.367 0.125049398 123.367 4.0230494 143.842 4.0230494 124.338 35.6960494 151.712 35.6960494 151.712 31.7970494 131.295 31.7970494 150.744 0.125049398 123.367 0.125049398"></polyline>
                <polyline id="Fill-9" fill="#FFFFFE" points="225.364 0.277049398 225.364 29.9600494 204.562 0.277049398 200.026 0.277049398 200.026 35.8020494 203.918 35.8020494 203.918 6.1090494 224.666 35.8020494 229.201 35.8020494 229.201 0.277049398 225.364 0.277049398"></polyline>
                <path d="M12.662,48.9070494 L11.576,52.2310494 L5.249,52.2310494 L5.249,55.2020494 L10.93,55.2020494 L10.93,58.4820494 L5.161,58.4820494 C5.219,58.6570494 5.249,58.8000494 5.249,58.9100494 L5.249,65.1060494 L1.245,65.1060494 L1.245,48.9070494 L12.662,48.9070494" id="Fill-10" fill="#FFFFFE"></path>
                <path d="M43.507,65.1060494 L31.728,65.1060494 L31.728,48.9070494 L43.507,48.9070494 L43.507,52.2310494 L35.775,52.2310494 L35.775,55.0170494 L42.827,55.0170494 L41.796,58.3720494 L35.665,58.3720494 C35.738,58.5200494 35.775,58.6610494 35.775,58.8000494 L35.775,61.7830494 L43.507,61.7830494 L43.507,65.1060494" id="Fill-11" fill="#FFFFFE"></path>
                <path d="M75.898,60.1380494 C75.898,61.8420494 75.313,63.1530494 74.144,64.0710494 C72.973,64.9880494 71.336,65.4460494 69.23,65.4460494 C66.05,65.4460494 63.808,64.1560494 62.507,61.5760494 L65.699,60.0280494 C66.51,61.4400494 67.687,62.1450494 69.23,62.1450494 C71.007,62.1450494 71.895,61.5230494 71.895,60.2810494 C71.895,59.3960494 71.394,58.8690494 70.393,58.7020494 C68.097,58.3210494 66.945,58.1310494 66.938,58.1310494 C65.673,57.8320494 64.73,57.3710494 64.108,56.7500494 C63.326,55.9670494 62.935,54.8440494 62.935,53.3820494 C62.935,51.8540494 63.542,50.6550494 64.756,49.7860494 C65.903,48.9670494 67.417,48.5560494 69.296,48.5560494 C72.228,48.5560494 74.345,49.6250494 75.646,51.7590494 L72.443,53.3390494 C71.778,52.3080494 70.729,51.7910494 69.296,51.7910494 C67.709,51.7910494 66.916,52.2710494 66.916,53.2290494 C66.916,53.9740494 67.289,54.4060494 68.034,54.5230494 C70.374,54.9100494 71.588,55.1150494 71.676,55.1370494 C73.014,55.4520494 74.008,55.9380494 74.659,56.5960494 C75.485,57.4210494 75.898,58.6030494 75.898,60.1380494" id="Fill-12" fill="#FFFFFE"></path>
                <polyline id="Fill-13" fill="#FFFFFE" points="107.578 52.2080494 102.949 52.2080494 102.949 65.1060494 98.88 65.1060494 98.88 52.2080494 94.23 52.2080494 94.23 48.9070494 107.578 48.9070494 107.578 52.2080494"></polyline>
                <polyline id="Fill-14" fill="#FFFFFE" points="133.651 65.1060494 126.215 65.1060494 126.215 63.0450494 127.926 63.0450494 127.926 50.9810494 126.215 50.9810494 126.215 48.9070494 133.651 48.9070494 133.651 50.9810494 131.962 50.9810494 131.962 63.0450494 133.651 63.0450494 133.651 65.1060494"></polyline>
                <path d="M167.808,48.9070494 L161.722,65.1060494 L157.938,65.1060494 L151.85,48.9070494 L156.282,48.9070494 L159.604,58.5470494 C159.649,58.6800494 159.714,59.1430494 159.801,59.9410494 C159.831,59.6340494 159.915,59.1690494 160.054,58.5470494 L163.378,48.9070494 L167.808,48.9070494" id="Fill-15" fill="#FFFFFE"></path>
                <path d="M192.707,58.5920494 L191.445,55.1150494 C191.372,54.9180494 191.31,54.6830494 191.259,54.4130494 C191.23,54.6110494 191.164,54.8440494 191.06,55.1150494 L189.779,58.5920494 L192.707,58.5920494 Z M199.419,65.1060494 L195.174,65.1060494 L193.935,61.8500494 L188.572,61.8500494 L187.333,65.1060494 L183.285,65.1060494 L189.559,48.9070494 L193.178,48.9070494 L199.419,65.1060494 L199.419,65.1060494 Z" id="Fill-16" fill="#FFFFFE"></path>
                <polyline id="Fill-17" fill="#FFFFFE" points="228.705 65.1060494 218.231 65.1060494 218.231 48.9070494 222.278 48.9070494 222.278 61.6090494 228.705 61.6090494 228.705 65.1060494"></polyline>
                <path d="M176.023,0.00704939806 C177.095,-0.0329506019 178.145,0.102049398 179.199,0.291049398 C180.315,0.491049398 181.309,0.957049398 182.243,1.5220494 C183.692,2.4010494 184.971,3.4850494 185.979,4.8410494 C186.593,5.6670494 187.225,6.4830494 187.803,7.3330494 C188.298,8.0590494 188.565,8.8900494 188.772,9.7330494 C189.154,11.2900494 189.164,12.8710494 189.043,14.4550494 C188.941,15.7800494 188.657,17.0820494 188.144,18.3060494 C187.658,19.4620494 187.195,20.6400494 186.415,21.6640494 C185.777,22.5010494 185.051,23.2340494 184.189,23.8620494 C183.215,24.5730494 182.19,25.2080494 181.114,25.7440494 C180.061,26.2670494 178.941,26.6530494 177.782,26.9390494 C176.238,27.3200494 174.677,27.3610494 173.111,27.2750494 C172.171,27.2230494 171.231,27.0720494 170.307,26.8870494 C169.259,26.6770494 168.367,26.1420494 167.577,25.4430494 C166.883,24.8270494 166.177,24.2260494 165.529,23.5620494 C164.864,22.8790494 164.367,22.0910494 163.87,21.2970494 C163.361,20.4850494 163.056,19.5920494 162.748,18.7000494 C162.726,18.6380494 162.718,18.5710494 162.691,18.5120494 C162.225,17.4740494 161.932,16.3830494 161.752,15.2740494 C161.517,13.8260494 161.385,12.3650494 161.539,10.8950494 C161.545,10.8430494 161.556,10.7900494 161.552,10.7390494 C161.512,10.2020494 161.629,9.7060494 161.898,9.2310494 C162.117,8.8450494 162.283,8.4320494 162.488,8.0390494 C162.773,7.4930494 163.051,6.9420494 163.369,6.4150494 C163.674,5.9100494 164.005,5.4160494 164.367,4.9480494 C164.705,4.5100494 165.083,4.0980494 165.472,3.7010494 C165.993,3.1700494 166.591,2.7250494 167.237,2.3440494 C168.523,1.5860494 169.904,1.0370494 171.344,0.624049398 C172.791,0.209049398 174.273,0.0190493981 175.78,0.00704939806 C175.861,0.00604939806 175.942,0.00704939806 176.023,0.00704939806" id="Fill-18" fill="#F6CF23"></path>
                <path d="M187.336,31.3300494 C187.336,31.2650494 187.328,31.2000494 187.323,31.1340494 C186.945,31.1230494 186.566,31.1130494 186.188,31.0970494 C186.145,31.0960494 186.106,31.0570494 186.065,31.0350494 C186.03,31.0340494 185.995,31.0320494 185.96,31.0300494 C185.875,31.0510494 185.791,31.0730494 185.704,31.0910494 C185.6,31.1110494 185.584,31.0530494 185.562,31.0030494 L185.299,30.9900494 C185.257,30.9860494 185.215,30.9830494 185.173,30.9800494 C184.902,30.9700494 184.632,30.9600494 184.362,30.9500494 C184.24,30.9990494 184.123,31.0120494 184.019,30.9270494 C183.82,30.9230494 183.621,30.9180494 183.422,30.9140494 C183.335,30.9250494 183.247,30.9440494 183.16,30.9440494 C182.669,30.9470494 182.178,30.9500494 181.687,30.9440494 C181.564,30.9430494 181.442,30.9090494 181.32,30.8900494 C181.031,30.8890494 180.741,30.8870494 180.452,30.8860494 C180.374,30.8850494 180.296,30.8850494 180.217,30.8840494 C180.112,30.8840494 180.007,30.8840494 179.902,30.8840494 C179.878,30.8830494 179.854,30.8830494 179.831,30.8820494 C179.595,30.8800494 179.359,30.8780494 179.123,30.8770494 C178.989,30.8870494 178.855,30.9080494 178.721,30.9060494 C178.486,30.9030494 178.252,30.8860494 178.017,30.8750494 C177.852,30.8760494 177.688,30.8760494 177.523,30.8770494 C177.467,30.8770494 177.411,30.8780494 177.355,30.8790494 C177.229,30.8800494 177.104,30.8810494 176.978,30.8830494 C176.955,30.8840494 176.931,30.8850494 176.907,30.8860494 L175.772,30.9060494 C175.698,30.9550494 175.62,30.9640494 175.537,30.9180494 C175.248,30.9240494 174.958,30.9290494 174.669,30.9350494 C174.448,31.0260494 174.221,31.0010494 173.993,30.9550494 C173.574,30.9610494 173.155,30.9660494 172.736,30.9710494 C172.717,30.9850494 172.7,31.0100494 172.68,31.0110494 C172.283,31.0290494 171.886,31.0460494 171.488,31.0580494 C171.458,31.0590494 171.424,31.0190494 171.392,30.9990494 C171.342,30.9990494 171.293,30.9990494 171.243,31.0000494 C171.08,31.0880494 170.907,31.0910494 170.727,31.0070494 C170.219,31.0070494 169.712,31.0070494 169.205,31.0080494 C169.057,31.0890494 169.01,31.0890494 168.85,31.0110494 C168.694,31.0140494 168.537,31.0180494 168.381,31.0220494 C168.367,31.0300494 168.354,31.0450494 168.339,31.0460494 C167.962,31.0730494 167.584,31.0950494 167.209,31.0350494 C166.883,31.0440494 166.557,31.0520494 166.231,31.0610494 C166.185,31.1040494 166.138,31.1040494 166.09,31.0620494 C165.685,31.0800494 165.279,31.0980494 164.874,31.1160494 L164.874,35.6040494 C165.238,35.6430494 165.601,35.6800494 165.966,35.7100494 C166.621,35.7640494 167.28,35.7950494 167.938,35.8180494 C168.257,35.8300494 168.579,35.7900494 168.899,35.7920494 C169.936,35.7980494 170.974,35.8220494 172.011,35.8220494 C173.195,35.8210494 174.38,35.8050494 175.564,35.7910494 C176.05,35.7850494 176.536,35.7680494 177.021,35.7480494 C177.506,35.7290494 177.99,35.6990494 178.474,35.6750494 C179.269,35.6340494 180.065,35.5940494 180.86,35.5540494 C181.353,35.5290494 181.847,35.5040494 182.34,35.4780494 C183.126,35.4380494 183.912,35.3990494 184.697,35.3580494 C185.446,35.3180494 186.195,35.2770494 186.944,35.2370494 C187.071,35.2300494 187.197,35.2210494 187.324,35.2130494 C187.328,35.1480494 187.336,35.0830494 187.336,35.0170494 C187.337,33.7880494 187.337,32.5590494 187.336,31.3300494" id="Fill-19" fill="#EC982F"></path>
                <path d="M49.11,0.315049398 C50.169,0.275049398 51.208,0.409049398 52.251,0.596049398 C53.353,0.794049398 54.336,1.2540494 55.26,1.8130494 C56.692,2.6820494 57.958,3.7540494 58.954,5.0950494 C59.561,5.9120494 60.185,6.7180494 60.757,7.5580494 C61.247,8.2770494 61.51,9.0980494 61.715,9.9310494 C62.093,11.4710494 62.102,13.0340494 61.983,14.6000494 C61.882,15.9110494 61.601,17.1980494 61.093,18.4090494 C60.614,19.5510494 60.156,20.7160494 59.385,21.7290494 C58.753,22.5560494 58.035,23.2810494 57.183,23.9020494 C56.221,24.6050494 55.208,25.2330494 54.143,25.7620494 C53.102,26.2800494 51.996,26.6610494 50.848,26.9440494 C49.321,27.3210494 47.778,27.3620494 46.229,27.2770494 C45.3,27.2250494 44.371,27.0760494 43.459,26.8930494 C42.421,26.6850494 41.54,26.1570494 40.758,25.4650494 C40.071,24.8570494 39.375,24.2620494 38.734,23.6050494 C38.075,22.9300494 37.584,22.1510494 37.092,21.3660494 C36.589,20.5620494 36.289,19.6800494 35.984,18.7980494 C35.962,18.7370494 35.954,18.6710494 35.928,18.6120494 C35.466,17.5860494 35.178,16.5070494 34.998,15.4100494 C34.766,13.9790494 34.635,12.5340494 34.789,11.0810494 C34.794,11.0290494 34.805,10.9770494 34.802,10.9260494 C34.761,10.3960494 34.877,9.9050494 35.143,9.4360494 C35.36,9.0540494 35.524,8.6460494 35.727,8.2560494 C36.008,7.7170494 36.282,7.1720494 36.597,6.6510494 C36.899,6.1520494 37.226,5.6630494 37.584,5.2000494 C37.918,4.7670494 38.293,4.3600494 38.678,3.9670494 C39.192,3.4430494 39.783,3.0020494 40.421,2.6260494 C41.694,1.8770494 43.059,1.3340494 44.484,0.925049398 C45.914,0.515049398 47.378,0.327049398 48.868,0.315049398 C48.949,0.314049398 49.029,0.315049398 49.11,0.315049398" id="Fill-20" fill="#E3692E"></path>
                <path d="M60.295,31.2740494 C60.295,31.2100494 60.287,31.1450494 60.282,31.0810494 C59.908,31.0690494 59.534,31.0600494 59.16,31.0440494 C59.118,31.0420494 59.079,31.0040494 59.039,30.9820494 C59.004,30.9810494 58.969,30.9790494 58.935,30.9780494 C58.85,30.9980494 58.767,31.0200494 58.681,31.0370494 C58.578,31.0580494 58.563,31.0000494 58.541,30.9510494 C58.454,30.9460494 58.368,30.9420494 58.281,30.9370494 C58.239,30.9340494 58.198,30.9310494 58.156,30.9280494 C57.889,30.9180494 57.621,30.9080494 57.354,30.8990494 C57.234,30.9460494 57.118,30.9590494 57.015,30.8750494 C56.819,30.8710494 56.622,30.8670494 56.425,30.8630494 C56.339,30.8730494 56.252,30.8920494 56.166,30.8930494 C55.68,30.8960494 55.195,30.8980494 54.709,30.8920494 C54.588,30.8910494 54.467,30.8580494 54.347,30.8390494 C54.061,30.8380494 53.774,30.8360494 53.488,30.8350494 C53.411,30.8340494 53.334,30.8340494 53.256,30.8330494 C53.152,30.8330494 53.048,30.8330494 52.944,30.8330494 C52.921,30.8320494 52.897,30.8320494 52.874,30.8310494 C52.641,30.8290494 52.407,30.8270494 52.174,30.8260494 C52.042,30.8360494 51.909,30.8570494 51.777,30.8550494 C51.545,30.8520494 51.313,30.8350494 51.081,30.8250494 C50.918,30.8250494 50.755,30.8250494 50.593,30.8260494 C50.537,30.8260494 50.482,30.8270494 50.426,30.8280494 C50.302,30.8290494 50.178,30.8300494 50.054,30.8320494 C50.03,30.8330494 50.007,30.8340494 49.984,30.8350494 C49.609,30.8410494 49.235,30.8480494 48.861,30.8550494 C48.788,30.9030494 48.711,30.9120494 48.629,30.8660494 C48.343,30.8720494 48.056,30.8780494 47.77,30.8840494 C47.552,30.9730494 47.328,30.9490494 47.102,30.9040494 C46.688,30.9090494 46.273,30.9140494 45.859,30.9190494 C45.841,30.9330494 45.823,30.9570494 45.803,30.9580494 C45.411,30.9760494 45.018,30.9930494 44.626,31.0050494 C44.595,31.0060494 44.562,30.9670494 44.53,30.9470494 C44.481,30.9470494 44.432,30.9470494 44.383,30.9470494 C44.221,31.0350494 44.051,31.0370494 43.872,30.9540494 C43.371,30.9550494 42.869,30.9550494 42.368,30.9550494 C42.221,31.0350494 42.175,31.0360494 42.017,30.9580494 C41.862,30.9620494 41.708,30.9660494 41.553,30.9690494 C41.539,30.9780494 41.526,30.9920494 41.511,30.9930494 C41.138,31.0200494 40.765,31.0420494 40.394,30.9820494 C40.072,30.9910494 39.75,30.9990494 39.428,31.0080494 C39.382,31.0500494 39.335,31.0500494 39.288,31.0090494 C38.887,31.0270494 38.486,31.0450494 38.086,31.0620494 L38.086,35.5000494 C38.445,35.5380494 38.805,35.5750494 39.165,35.6050494 C39.812,35.6580494 40.464,35.6890494 41.115,35.7120494 C41.43,35.7230494 41.748,35.6840494 42.065,35.6860494 C43.091,35.6920494 44.116,35.7160494 45.142,35.7150798 C46.313,35.7150798 47.484,35.6990494 48.655,35.6840494 C49.136,35.6780494 49.616,35.6620494 50.096,35.6430494 C50.575,35.6230494 51.054,35.5940494 51.533,35.5700494 C52.319,35.5300494 53.105,35.4900494 53.892,35.4500494 C54.38,35.4250494 54.868,35.4010494 55.355,35.3760494 C56.132,35.3360494 56.909,35.2970494 57.686,35.2560494 C58.427,35.2170494 59.167,35.1770494 59.908,35.1370494 C60.033,35.1300494 60.158,35.1210494 60.283,35.1130494 C60.287,35.0490494 60.295,34.9840494 60.295,34.9200494 C60.296,33.7050494 60.296,32.4890494 60.295,31.2740494" id="Fill-21" fill="#BD9CBD"></path>
                <path d="M0.016,90.9620494 C0.016,87.8880494 1.996,86.5670494 3.556,85.4880494 C4.605,84.7530494 5.49,84.1230494 5.49,83.1330494 C5.49,81.9330494 4.815,81.4980494 3.886,81.4980494 C2.355,81.4980494 1.951,82.2780494 1.786,83.3880494 L-2.13162821e-14,83.3880494 C0.121,81.6180494 1.036,79.9080494 3.886,79.9080494 C5.806,79.9080494 7.456,80.7930494 7.456,83.1330494 C7.456,85.0530494 6,86.0130494 4.59,87.0180494 C3.36,87.9020494 2.685,88.4280494 2.355,89.3280494 L5.625,89.3280494 L5.625,88.1280494 L7.47,88.1280494 L7.47,90.9620494 L0.016,90.9620494" id="Fill-22" fill="#FFFFFE"></path>
                <path d="M17.7,91.2020494 C15.706,91.2020494 14.385,90.6170494 13.485,88.8170494 L14.985,88.0980494 C15.675,89.4330494 16.41,89.6430494 17.7,89.6430494 C19.095,89.6430494 19.605,88.7570494 19.605,87.4220494 C19.605,85.8170494 18.48,85.3830494 17.22,85.3830494 C16.41,85.3830494 15.541,85.5630494 14.88,85.8170494 L14.34,85.3080494 L14.925,80.1480494 L21.405,80.1480494 L20.91,81.8280494 L16.5,81.8280494 L16.245,84.0180494 C16.71,83.8980494 17.295,83.8680494 17.655,83.8680494 C20.025,83.8680494 21.57,84.9780494 21.57,87.4220494 C21.57,89.6430494 20.37,91.2020494 17.7,91.2020494" id="Fill-23" fill="#FFFFFE"></path>
                <path d="M40.559,83.3130494 C40.454,83.0280494 40.365,82.6530494 40.335,82.4580494 C40.305,82.6680494 40.215,83.0430494 40.125,83.3130494 L39.015,86.5380494 L41.655,86.5380494 L40.559,83.3130494 Z M43.17,90.9620494 L42.24,88.2170494 L38.445,88.2170494 L37.5,90.9620494 L35.415,90.9620494 L39.33,80.1480494 L41.385,80.1480494 L45.285,90.9620494 L43.17,90.9620494 L43.17,90.9620494 Z" id="Fill-24" fill="#FFFFFE"></path>
                <path d="M55.109,91.2020494 C52.499,91.2020494 50.669,89.8080494 50.669,86.4620494 L50.669,80.1480494 L52.68,80.1480494 L52.68,86.4620494 C52.68,88.6520494 53.519,89.4780494 55.109,89.4780494 C56.699,89.4780494 57.569,88.6380494 57.569,86.4620494 L57.569,80.1480494 L59.579,80.1480494 L59.579,86.4620494 C59.579,89.8080494 57.719,91.2020494 55.109,91.2020494" id="Fill-25" fill="#FFFFFE"></path>
                <path d="M70.394,91.1880494 C66.975,91.1880494 65.655,89.0130494 65.655,85.5480494 C65.655,82.4130494 66.765,79.9080494 70.394,79.9080494 C73.109,79.9080494 74.429,81.5430494 74.564,83.4780494 L72.764,83.4780494 C72.629,82.4580494 71.879,81.6330494 70.394,81.6330494 C68.234,81.6330494 67.694,83.0580494 67.694,85.5480494 C67.694,87.8880494 68.205,89.5070494 70.394,89.5070494 C71.189,89.5070494 72.074,89.2530494 72.554,88.9080494 L72.554,87.0470494 C72.554,86.9280494 72.599,86.8370494 72.629,86.7180494 L70.56,86.7180494 L70.109,85.0380494 L74.564,85.0380494 L74.564,89.5830494 C73.679,90.3330494 72.329,91.1880494 70.394,91.1880494" id="Fill-26" fill="#FFFFFE"></path>
                <polygon id="Fill-27" fill="#FFFFFE" points="88.739 87.0030494 94.814 87.0030494 94.814 85.3530494 88.739 85.3530494"></polygon>
                <path d="M112.619,91.2020494 C110.623,91.2020494 109.304,90.6170494 108.404,88.8170494 L109.904,88.0980494 C110.594,89.4330494 111.329,89.6430494 112.619,89.6430494 C113.968,89.6430494 114.568,88.9080494 114.568,87.7370494 C114.568,86.7770494 114.013,86.0580494 112.948,86.0580494 L111.298,86.0580494 L110.833,84.5730494 L112.948,84.5730494 C113.833,84.5730494 114.358,83.9130494 114.358,82.9380494 C114.358,82.1280494 114.013,81.4680494 112.784,81.4680494 C111.494,81.4680494 110.759,81.6780494 110.068,83.0130494 L108.569,82.2930494 C109.469,80.4930494 110.789,79.9080494 112.784,79.9080494 C115.378,79.9080494 116.338,81.2430494 116.338,82.9380494 C116.338,83.9880494 115.738,84.9180494 114.748,85.2320494 C115.843,85.5180494 116.533,86.6580494 116.533,87.7370494 C116.533,90.0470494 114.883,91.2020494 112.619,91.2020494" id="Fill-28" fill="#FFFFFE"></path>
                <path d="M134.533,91.2020494 C132.298,91.2020494 131.218,90.1680494 130.528,89.0720494 L132.193,88.2030494 C132.658,88.8930494 133.377,89.4780494 134.518,89.4780494 C136.212,89.4780494 136.723,88.7570494 136.723,87.7830494 C136.723,87.0780494 136.393,86.5670494 135.433,86.4180494 L133.227,86.0580494 C131.667,85.8030494 130.663,84.9780494 130.663,82.9980494 C130.663,81.4380494 131.743,79.9080494 134.593,79.9080494 C136.828,79.9080494 137.802,80.7480494 138.493,81.8430494 L136.828,82.7130494 C136.362,82.0230494 135.732,81.6330494 134.593,81.6330494 C133.153,81.6330494 132.658,82.1880494 132.658,82.9980494 C132.658,83.7630494 132.943,84.0180494 133.678,84.1380494 L135.823,84.4820494 C137.442,84.7380494 138.762,85.5930494 138.762,87.7830494 C138.762,89.7630494 137.502,91.2020494 134.533,91.2020494" id="Fill-29" fill="#FFFFFE"></path>
                <path d="M144.658,90.9620494 L144.658,80.1480494 L151.857,80.1480494 L151.857,81.8280494 L146.667,81.8280494 L146.667,84.4230494 L151.407,84.4230494 L150.913,86.1030494 L146.607,86.1030494 C146.653,86.2080494 146.667,86.3280494 146.667,86.3880494 L146.667,89.2820494 L151.873,89.2820494 L151.873,90.9620494 L144.658,90.9620494" id="Fill-30" fill="#FFFFFE"></path>
                <path d="M161.682,81.8580494 L160.032,81.8580494 L160.032,85.4880494 L161.682,85.4880494 C163.032,85.4880494 163.662,84.8130494 163.662,83.5830494 C163.662,82.4280494 163.002,81.8580494 161.682,81.8580494 Z M161.682,87.1980494 L159.927,87.1980494 C159.957,87.3030494 160.032,87.4820494 160.032,87.5870494 L160.032,90.9620494 L158.022,90.9620494 L158.022,80.1480494 L161.682,80.1480494 C164.442,80.1480494 165.702,81.6180494 165.702,83.5830494 C165.702,85.5330494 164.472,87.1980494 161.682,87.1980494 L161.682,87.1980494 Z" id="Fill-31" fill="#FFFFFE"></path>
                <path d="M179.907,90.9620494 C179.907,87.8880494 181.887,86.5670494 183.447,85.4880494 C184.497,84.7530494 185.381,84.1230494 185.381,83.1330494 C185.381,81.9330494 184.706,81.4980494 183.777,81.4980494 C182.247,81.4980494 181.842,82.2780494 181.677,83.3880494 L179.892,83.3880494 C180.012,81.6180494 180.927,79.9080494 183.777,79.9080494 C185.697,79.9080494 187.347,80.7930494 187.347,83.1330494 C187.347,85.0530494 185.892,86.0130494 184.481,87.0180494 C183.251,87.9020494 182.577,88.4280494 182.247,89.3280494 L185.517,89.3280494 L185.517,88.1280494 L187.361,88.1280494 L187.361,90.9620494 L179.907,90.9620494" id="Fill-32" fill="#FFFFFE"></path>
                <path d="M197.666,81.5130494 C196.122,81.5130494 195.866,82.7130494 195.866,85.4280494 C195.866,88.2770494 196.122,89.5980494 197.666,89.5980494 C199.211,89.5980494 199.466,88.2770494 199.466,85.4280494 C199.466,82.7130494 199.211,81.5130494 197.666,81.5130494 Z M197.666,91.1880494 C194.307,91.1880494 193.887,88.4130494 193.887,85.4280494 C193.887,82.5030494 194.441,79.9080494 197.666,79.9080494 C200.891,79.9080494 201.446,82.5030494 201.446,85.4280494 C201.446,88.4130494 201.026,91.1880494 197.666,91.1880494 L197.666,91.1880494 Z" id="Fill-33" fill="#FFFFFE"></path>
                <path d="M207.806,90.9620494 C207.806,87.8880494 209.786,86.5670494 211.346,85.4880494 C212.396,84.7530494 213.281,84.1230494 213.281,83.1330494 C213.281,81.9330494 212.606,81.4980494 211.676,81.4980494 C210.146,81.4980494 209.741,82.2780494 209.576,83.3880494 L207.791,83.3880494 C207.911,81.6180494 208.826,79.9080494 211.676,79.9080494 C213.596,79.9080494 215.246,80.7930494 215.246,83.1330494 C215.246,85.0530494 213.791,86.0130494 212.381,87.0180494 C211.151,87.9020494 210.476,88.4280494 210.146,89.3280494 L213.416,89.3280494 L213.416,88.1280494 L215.261,88.1280494 L215.261,90.9620494 L207.806,90.9620494" id="Fill-34" fill="#FFFFFE"></path>
                <path d="M225.461,91.2020494 C223.466,91.2020494 222.146,90.6170494 221.246,88.8170494 L222.746,88.0980494 C223.436,89.4330494 224.171,89.6430494 225.461,89.6430494 C226.81,89.6430494 227.411,88.9080494 227.411,87.7370494 C227.411,86.7770494 226.856,86.0580494 225.79,86.0580494 L224.141,86.0580494 L223.676,84.5730494 L225.79,84.5730494 C226.676,84.5730494 227.201,83.9130494 227.201,82.9380494 C227.201,82.1280494 226.856,81.4680494 225.626,81.4680494 C224.336,81.4680494 223.601,81.6780494 222.911,83.0130494 L221.411,82.2930494 C222.311,80.4930494 223.631,79.9080494 225.626,79.9080494 C228.221,79.9080494 229.181,81.2430494 229.181,82.9380494 C229.181,83.9880494 228.581,84.9180494 227.591,85.2320494 C228.685,85.5180494 229.375,86.6580494 229.375,87.7370494 C229.375,90.0470494 227.726,91.2020494 225.461,91.2020494" id="Fill-35" fill="#FFFFFE"></path>
            </g>
        </g>
    </g>
</svg>